@startuml
'skinparam monochrome true
skinparam packageStyle rectangle
skinparam shadowing false
skinparam linetype polyline
'skinparam linetype orto

skinparam classAttributeIconSize 0

'left to right direction

class AnalyseDealsUI {
- int AnalyseMethod
+ getStoreManagerEmail()
+ getStoreManagerStoresList()
+ displayAndChooseMethod()
+ analyseDeals()
}

'________________________________________________________________________________________

class AnalyseDealsController {
- Repositories repositories;
- PropertyRepository propertyRepository;
- RequestRepository requestRepository;
- AdvertisementRepository advertisementRepository;
+ getInstance()
+ getPropertyTypeList()
+ getBusinessTypeList()
+ getAdvertismentRepository()
+ getStoreManagerEmail()
+ getPersonRepository()
+ getStores()
+ getStoreManagerStoresDealsList()
}

'________________________________________________________________________________________


class Repositories {
- Repositories()
+ getInstance() : Repositories
+ getPropertyRepository()
+ getBusinessTypeRepository()
+ getRequestRepository()
+ getAdvertismentRepository()
}
'________________________________________________________________________________________

class PropertyRepository{
+ getPropertyList()
}
interface Property {
- double area;
- double distance;
- Location location;
- List<String> photographs;
}

class Apartment{
- int: numberBedrooms
- int: numberParking
- int: numberBathrooms
- String: availableEquipment
}

class House{
- int: numberBedrooms
- int: numberParking
- int: numberBathrooms
- String: availableEquipment
- boolean: basement
- boolean: habitableLoft
}

enum SunExposureType {
- String: North, South, East, West
}
class SunExposure {
+ getSunExposureType()
}
enum PropertyType {
LAND + APARTMENT + HOUSE
    description
}
interface Location {
- street
- zipCode
- stateUS
- city
- district
}
'________________________________________________________________________________________
class RequestRepository{
+ getRequestList()
}
class Request{
- Date date;
}
class BusinessType{
+ getBusinessTypeList()
}
class BusinessType {
    description
}

class BusinessTypeSale{
- double:salePrice
}
'________________________________________________________________________________________
class AdvertisementRepository {
+ getAdvertisementList()
}
class Advertisement {
- Request keepRequest;
- PropertyType keepPropertyType;
- BusinessType keepBusinessType;
- Property keepProperty;
- double area;
- double distance;
- int numberBedrooms
- int numberParking
- int numberBathrooms
- String availableEquipment
- boolean basement
- boolean loft
- SunExposure sun
- String street
- String zip
- String state
- String city
- String district
- List<String> photographs
- double salePrice
}

class Offer{
    status
    value
}

AnalyseDealsUI .down.> AnalyseDealsController

AnalyseDealsController .down.> Repositories: repositories

Repositories -down-> PropertyRepository
Repositories -down-> SunExposureRepository
Repositories -down-> BusinessTypeRepository
Repositories -down-> RequestRepository
Repositories -up-> PersonRepository
Repositories -down-> AdvertisementRepository

PropertyRepository -down-> "*" Property
Property "1" -down-> "1" PropertyType: owns
Property "1" -down-> "1" Location: owns
Apartment -up-|> Property
House -up-|> Property
SunExposure -up-> House
SunExposure --> "*" SunExposureType

RequestRepository -down-> "*" Request
Request "*"  -down-> "1" BusinessType: is classified:
Request "1"  -> "1" Property: include:
BusinessType -down-> BusinessTypeSale: can be:

AdvertisementRepository -down-> "*" Advertisement

Advertisement "1"-->"1" Request: include:

PersonRepository -left-> "*" Person

Advertisement "1"--> "*"Offer: receives:

Person "*" --> "1" Offer: makes:
@enduml